<svg xmlns="http://www.w3.org/2000/svg" xmlns:xlink="http://www.w3.org/1999/xlink" viewBox="0 0 35 33" overflow="visible"><g><path d="M 5.968 15.764 C 4.33 18.54 5.62 24.73 5.903 25.974 L 1.005 19.298 C -0.331 17.478 -0.335 15.013 0.995 13.188 L 9.023 2.159 C 10.01 0.803 11.595 -0.001 13.282 0 L 17.276 0 C 17.868 0 18.054 0.379 17.688 0.841 Z" fill="rgb(106,0,223)"></path><g><defs><linearGradient id="idsBHpmDlKcj_3g1693201582" x1="0.43921463180578363" x2="0.5607853681942164" y1="5.551115123125783e-17" y2="1"><stop offset="0" stop-color="rgb(0,0,0)" stop-opacity="1"></stop><stop offset="1" stop-color="rgb(182,0,223)" stop-opacity="1"></stop></linearGradient></defs><path d="M 18.273 33 L 13.736 33 C 12.266 33 10.354 32.036 9.49 30.857 L 5.906 25.975 L 5.477 25.391 C 4.125 23.554 3.755 21.18 4.485 19.024 C 4.869 17.891 5.367 16.799 5.97 15.765 L 18.689 32.162 C 19.049 32.623 18.86 33 18.273 33 Z" fill="url(#idsBHpmDlKcj_3g1693201582)"></path></g><path d="M 0 30.502 C 0 29.125 1.126 28.009 2.515 28.009 C 3.903 28.009 5.029 29.125 5.029 30.502 C 5.029 31.879 3.903 32.995 2.515 32.995 C 1.126 32.995 0 31.879 0 30.502 Z" fill="rgb(0,0,72)"></path><g><defs><linearGradient id="idsBHpmDlKcj_5g664518003" x1="0.4298982807980357" x2="0.5701017192019643" y1="1" y2="0"><stop offset="0" stop-color="rgb(0,0,163)" stop-opacity="1"></stop><stop offset="1" stop-color="rgb(0,0,72)" stop-opacity="1"></stop></linearGradient></defs><path d="M 26.455 6.02 C 23.708 6.758 21.59 8.61 21.586 11.808 L 21.586 32.172 C 21.596 33.109 21.169 33.255 20.635 32.497 L 16.348 26.4 C 16.196 26.183 16.091 25.936 16.04 25.677 C 16.04 25.677 14.853 8.851 26.455 6.02 Z" fill="url(#idsBHpmDlKcj_5g664518003)"></path></g><path d="M 35 0.521 C 35 3.352 32.832 5.72 29.99 5.995 C 29.566 5.995 29.155 6.009 28.755 6.039 C 27.979 6.078 27.209 6.196 26.457 6.391 C 14.855 9.184 16.043 25.79 16.043 25.79 C 16.017 25.662 16.003 25.531 16.003 25.4 L 16.061 8.569 C 16.064 7.726 16.342 6.907 16.854 6.233 L 21.588 0 L 34.476 0 C 34.766 0.002 34.999 0.234 35 0.521 Z M 6.046 0 C 6.742 0 6.972 0.443 6.555 0.984 L 3.656 4.752 L 1.145 8.017 C 0.515 8.833 0 8.669 0 7.65 L 0 0.616 C 0.007 0.274 0.29 0.002 0.635 0.004 Z" fill="rgb(0,0,72)"></path></g></svg>